<svg xmlns="http://www.w3.org/2000/svg" width="1240" height="1240"><path d="M599 3.591c-65.655 3.618-114.6 12.303-169.047 29.998-93.474 30.378-175.354 80.686-245.516 150.848-70.162 70.162-120.47 152.042-150.848 245.516C13.228 492.602 3.637 553.783 3.637 621s9.591 128.398 29.952 191.047c30.378 93.474 80.686 175.354 150.848 245.516 70.162 70.162 152.042 120.47 245.516 150.848 62.649 20.361 123.83 29.952 191.047 29.952s128.398-9.591 191.047-29.952c93.474-30.378 175.354-80.686 245.516-150.848 31.127-31.127 53.537-58.322 77.102-93.563 59.557-89.066 93.531-188.019 102.483-298.5 1.565-19.312 1.565-69.688 0-89-11.185-138.032-61.952-259.485-151.523-362.5-20.503-23.58-53.364-54.993-79.125-75.638C909.974 61.004 792.097 14.7 667.108 5.044 652.649 3.927 609.579 3.008 599 3.591m-11.5 50.002c-2.2.209-9.625.861-16.5 1.449-107.547 9.202-212.376 50.235-297.5 116.447-37.16 28.905-73.106 64.851-102.011 102.011C112.666 349.124 73.365 440.941 59.13 536c-4.764 31.818-5.62 44.762-5.62 85 0 40.107.868 53.33 5.547 84.5C74.932 811.238 118.842 907.144 189.773 991c12.516 14.797 46.43 48.711 61.227 61.227 83.699 70.798 179.927 114.908 285 130.643 31.818 4.764 44.762 5.62 85 5.62s53.182-.856 85-5.62c105.073-15.735 201.301-59.845 285-130.643 14.797-12.516 48.711-46.43 61.227-61.227 70.914-83.837 114.845-179.786 130.716-285.5 4.679-31.17 5.547-44.393 5.547-84.5 0-40.238-.856-53.182-5.62-85-15.735-105.073-59.845-201.301-130.643-285-12.516-14.797-46.43-48.711-61.227-61.227-78.268-66.203-167.136-108.912-264.679-127.2-35.888-6.729-57.551-8.705-99.321-9.058-19.525-.165-37.3-.13-39.5.078M189 648.5V899l89.25-.013c92.841-.014 171.916-1.245 194.25-3.023 39.965-3.182 68.481-14.922 91.816-37.801 39.317-38.547 54.007-101.561 35.094-150.533-6.149-15.923-14.386-28.588-26.419-40.621-12.999-12.999-29.595-23.209-49.733-30.596l-10.242-3.757 7.017-3.808c23.198-12.587 39.071-29.028 50.541-52.348 18.159-36.919 16.582-78.409-4.292-112.889-18.647-30.804-45.837-50.463-81.194-58.707-24.945-5.816-53.003-6.856-185.838-6.882L189 398v250.5m505 0V899l89.25-.013c92.841-.014 171.916-1.245 194.25-3.023 39.965-3.182 68.481-14.922 91.816-37.801 39.317-38.547 54.007-101.561 35.094-150.533-6.149-15.923-14.386-28.588-26.419-40.621-12.999-12.999-29.595-23.209-49.733-30.596l-10.242-3.757 7.017-3.808c23.198-12.587 39.071-29.028 50.541-52.348 18.159-36.919 16.582-78.409-4.292-112.889-18.647-30.804-45.837-50.463-81.194-58.707-24.945-5.816-53.003-6.856-185.838-6.882L694 398v250.5M289 539.072v58.071l70.25-.427c50.355-.307 71.666-.772 75.25-1.642 16.019-3.889 25.354-8.346 33.966-16.217 10.907-9.968 15.437-20.395 16.229-37.357.884-18.916-3.413-31.412-14.619-42.515-12.069-11.958-23.462-15.644-52.576-17.008-10.45-.49-43.637-.911-73.75-.934L289 481v58.072m505 0v58.071l70.25-.427c50.355-.307 71.666-.772 75.25-1.642 16.019-3.889 25.354-8.346 33.966-16.217 10.907-9.968 15.437-20.395 16.229-37.357.884-18.916-3.413-31.412-14.619-42.515-12.069-11.958-23.462-15.644-52.576-17.008-10.45-.49-43.638-.911-73.75-.934L794 481v58.072M289.667 680.667c-.367.366-.667 30.741-.667 67.5V815l58.75-.018c32.313-.01 67.793-.457 78.846-.993 31.823-1.545 44.815-5.783 59.034-19.258 12.532-11.877 17.662-25.041 17.625-45.231-.05-27.529-11.325-46.986-33.523-57.845-14.359-7.025-27.309-9.148-65.095-10.673-26.589-1.072-113.973-1.312-114.97-.315m505 0c-.367.366-.667 30.741-.667 67.5V815l58.75-.018c32.313-.01 67.793-.457 78.846-.993 31.823-1.545 44.815-5.783 59.034-19.258 12.532-11.877 17.662-25.041 17.625-45.231-.05-27.529-11.325-46.986-33.523-57.845-14.359-7.025-27.309-9.148-65.095-10.673-26.589-1.072-113.973-1.312-114.97-.315" fill="undefined" fill-rule="evenodd"/></svg>